<svg xmlns="http://www.w3.org/2000/svg" width="33" height="24" viewBox="0 0 33 24">
  <path id="Icon_material-devices-other" data-name="Icon material-devices-other" d="M4.5,9h27V6H4.5a3.009,3.009,0,0,0-3,3V27a3.009,3.009,0,0,0,3,3h6V27h-6Zm15,9h-6v2.67a4.446,4.446,0,0,0,0,6.66V30h6V27.33a4.446,4.446,0,0,0,0-6.66Zm-3,8.25A2.25,2.25,0,1,1,18.75,24,2.247,2.247,0,0,1,16.5,26.25ZM33,12H24a1.613,1.613,0,0,0-1.5,1.5v15A1.613,1.613,0,0,0,24,30h9a1.613,1.613,0,0,0,1.5-1.5v-15A1.613,1.613,0,0,0,33,12ZM31.5,27h-6V15h6Z" transform="translate(-1.5 -6)" fill="#8888c4"/>
</svg>
