<svg xmlns="http://www.w3.org/2000/svg" xmlns:xlink="http://www.w3.org/1999/xlink" width="1384" height="786" viewBox="0 0 1384 786">
  <defs>
    <filter id="矩形_10" x="0" y="0" width="48" height="48" filterUnits="userSpaceOnUse">
      <feOffset dy="3" input="SourceAlpha"/>
      <feGaussianBlur stdDeviation="3" result="blur"/>
      <feFlood flood-opacity="0.161"/>
      <feComposite operator="in" in2="blur"/>
      <feComposite in="SourceGraphic"/>
    </filter>
    <filter id="矩形_13" x="135.756" y="285.777" width="48" height="48" filterUnits="userSpaceOnUse">
      <feOffset dy="3" input="SourceAlpha"/>
      <feGaussianBlur stdDeviation="3" result="blur-2"/>
      <feFlood flood-opacity="0.161"/>
      <feComposite operator="in" in2="blur-2"/>
      <feComposite in="SourceGraphic"/>
    </filter>
    <filter id="矩形_15" x="379.603" y="409.329" width="55.107" height="55.107" filterUnits="userSpaceOnUse">
      <feOffset dy="3" input="SourceAlpha"/>
      <feGaussianBlur stdDeviation="3" result="blur-3"/>
      <feFlood flood-opacity="0.161"/>
      <feComposite operator="in" in2="blur-3"/>
      <feComposite in="SourceGraphic"/>
    </filter>
    <filter id="矩形_25" x="1022.493" y="244.575" width="55.107" height="55.107" filterUnits="userSpaceOnUse">
      <feOffset dy="3" input="SourceAlpha"/>
      <feGaussianBlur stdDeviation="3" result="blur-4"/>
      <feFlood flood-opacity="0.161"/>
      <feComposite operator="in" in2="blur-4"/>
      <feComposite in="SourceGraphic"/>
    </filter>
    <filter id="矩形_31" x="1092.071" y="498.495" width="60.194" height="60.194" filterUnits="userSpaceOnUse">
      <feOffset dy="3" input="SourceAlpha"/>
      <feGaussianBlur stdDeviation="3" result="blur-5"/>
      <feFlood flood-opacity="0.161"/>
      <feComposite operator="in" in2="blur-5"/>
      <feComposite in="SourceGraphic"/>
    </filter>
    <filter id="矩形_20" x="417.841" y="170.829" width="55.107" height="55.107" filterUnits="userSpaceOnUse">
      <feOffset dy="3" input="SourceAlpha"/>
      <feGaussianBlur stdDeviation="3" result="blur-6"/>
      <feFlood flood-opacity="0.161"/>
      <feComposite operator="in" in2="blur-6"/>
      <feComposite in="SourceGraphic"/>
    </filter>
    <filter id="矩形_26" x="1060.731" y="5.687" width="55.107" height="55.107" filterUnits="userSpaceOnUse">
      <feOffset dy="3" input="SourceAlpha"/>
      <feGaussianBlur stdDeviation="3" result="blur-7"/>
      <feFlood flood-opacity="0.161"/>
      <feComposite operator="in" in2="blur-7"/>
      <feComposite in="SourceGraphic"/>
    </filter>
    <filter id="矩形_19" x="652.005" y="197.51" width="55.107" height="55.107" filterUnits="userSpaceOnUse">
      <feOffset dy="3" input="SourceAlpha"/>
      <feGaussianBlur stdDeviation="3" result="blur-8"/>
      <feFlood flood-opacity="0.161"/>
      <feComposite operator="in" in2="blur-8"/>
      <feComposite in="SourceGraphic"/>
    </filter>
    <filter id="矩形_34" x="732.87" y="602.355" width="60.194" height="60.194" filterUnits="userSpaceOnUse">
      <feOffset dy="3" input="SourceAlpha"/>
      <feGaussianBlur stdDeviation="3" result="blur-9"/>
      <feFlood flood-opacity="0.161"/>
      <feComposite operator="in" in2="blur-9"/>
      <feComposite in="SourceGraphic"/>
    </filter>
    <filter id="矩形_24" x="1296.541" y="30.667" width="55.107" height="55.107" filterUnits="userSpaceOnUse">
      <feOffset dy="3" input="SourceAlpha"/>
      <feGaussianBlur stdDeviation="3" result="blur-10"/>
      <feFlood flood-opacity="0.161"/>
      <feComposite operator="in" in2="blur-10"/>
      <feComposite in="SourceGraphic"/>
    </filter>
    <filter id="矩形_17" x="773.543" y="5.824" width="48.519" height="48.519" filterUnits="userSpaceOnUse">
      <feOffset dy="3" input="SourceAlpha"/>
      <feGaussianBlur stdDeviation="3" result="blur-11"/>
      <feFlood flood-opacity="0.161"/>
      <feComposite operator="in" in2="blur-11"/>
      <feComposite in="SourceGraphic"/>
    </filter>
    <filter id="矩形_11" x="203.221" y="105.83" width="56.451" height="56.451" filterUnits="userSpaceOnUse">
      <feOffset dy="3" input="SourceAlpha"/>
      <feGaussianBlur stdDeviation="3" result="blur-12"/>
      <feFlood flood-opacity="0.161"/>
      <feComposite operator="in" in2="blur-12"/>
      <feComposite in="SourceGraphic"/>
    </filter>
    <filter id="矩形_18" x="852.411" y="329.349" width="59.782" height="59.782" filterUnits="userSpaceOnUse">
      <feOffset dy="3" input="SourceAlpha"/>
      <feGaussianBlur stdDeviation="3" result="blur-13"/>
      <feFlood flood-opacity="0.161"/>
      <feComposite operator="in" in2="blur-13"/>
      <feComposite in="SourceGraphic"/>
    </filter>
    <filter id="矩形_29" x="974.326" y="653.864" width="53.582" height="53.582" filterUnits="userSpaceOnUse">
      <feOffset dy="3" input="SourceAlpha"/>
      <feGaussianBlur stdDeviation="3" result="blur-14"/>
      <feFlood flood-opacity="0.161"/>
      <feComposite operator="in" in2="blur-14"/>
      <feComposite in="SourceGraphic"/>
    </filter>
    <filter id="矩形_14" x="562.213" y="439.024" width="50.02" height="50.02" filterUnits="userSpaceOnUse">
      <feOffset dy="3" input="SourceAlpha"/>
      <feGaussianBlur stdDeviation="3" result="blur-15"/>
      <feFlood flood-opacity="0.161"/>
      <feComposite operator="in" in2="blur-15"/>
      <feComposite in="SourceGraphic"/>
    </filter>
    <filter id="矩形_22" x="1211.199" y="274.347" width="50.02" height="50.02" filterUnits="userSpaceOnUse">
      <feOffset dy="3" input="SourceAlpha"/>
      <feGaussianBlur stdDeviation="3" result="blur-16"/>
      <feFlood flood-opacity="0.161"/>
      <feComposite operator="in" in2="blur-16"/>
      <feComposite in="SourceGraphic"/>
    </filter>
    <filter id="矩形_30" x="1273.017" y="453.99" width="56.133" height="56.133" filterUnits="userSpaceOnUse">
      <feOffset dy="3" input="SourceAlpha"/>
      <feGaussianBlur stdDeviation="3" result="blur-17"/>
      <feFlood flood-opacity="0.161"/>
      <feComposite operator="in" in2="blur-17"/>
      <feComposite in="SourceGraphic"/>
    </filter>
    <filter id="矩形_16" x="456.746" y="571.015" width="50.02" height="50.02" filterUnits="userSpaceOnUse">
      <feOffset dy="3" input="SourceAlpha"/>
      <feGaussianBlur stdDeviation="3" result="blur-18"/>
      <feFlood flood-opacity="0.161"/>
      <feComposite operator="in" in2="blur-18"/>
      <feComposite in="SourceGraphic"/>
    </filter>
    <filter id="矩形_23" x="1110.817" y="406.338" width="50.02" height="50.02" filterUnits="userSpaceOnUse">
      <feOffset dy="3" input="SourceAlpha"/>
      <feGaussianBlur stdDeviation="3" result="blur-19"/>
      <feFlood flood-opacity="0.161"/>
      <feComposite operator="in" in2="blur-19"/>
      <feComposite in="SourceGraphic"/>
    </filter>
    <filter id="矩形_12" x="21.475" y="503.086" width="56.451" height="56.451" filterUnits="userSpaceOnUse">
      <feOffset dy="3" input="SourceAlpha"/>
      <feGaussianBlur stdDeviation="3" result="blur-20"/>
      <feFlood flood-opacity="0.161"/>
      <feComposite operator="in" in2="blur-20"/>
      <feComposite in="SourceGraphic"/>
    </filter>
    <filter id="椭圆_1" x="15" y="104" width="48" height="48" filterUnits="userSpaceOnUse">
      <feOffset dy="3" input="SourceAlpha"/>
      <feGaussianBlur stdDeviation="3" result="blur-21"/>
      <feFlood flood-opacity="0.161"/>
      <feComposite operator="in" in2="blur-21"/>
      <feComposite in="SourceGraphic"/>
    </filter>
    <filter id="椭圆_8" x="510.023" y="237.143" width="55.107" height="55.107" filterUnits="userSpaceOnUse">
      <feOffset dy="3" input="SourceAlpha"/>
      <feGaussianBlur stdDeviation="3" result="blur-22"/>
      <feFlood flood-opacity="0.161"/>
      <feComposite operator="in" in2="blur-22"/>
      <feComposite in="SourceGraphic"/>
    </filter>
    <filter id="椭圆_23" x="617.389" y="697.229" width="60.194" height="60.194" filterUnits="userSpaceOnUse">
      <feOffset dy="3" input="SourceAlpha"/>
      <feGaussianBlur stdDeviation="3" result="blur-23"/>
      <feFlood flood-opacity="0.161"/>
      <feComposite operator="in" in2="blur-23"/>
      <feComposite in="SourceGraphic"/>
    </filter>
    <filter id="椭圆_15" x="1161.431" y="67.774" width="55.107" height="55.107" filterUnits="userSpaceOnUse">
      <feOffset dy="3" input="SourceAlpha"/>
      <feGaussianBlur stdDeviation="3" result="blur-24"/>
      <feFlood flood-opacity="0.161"/>
      <feComposite operator="in" in2="blur-24"/>
      <feComposite in="SourceGraphic"/>
    </filter>
    <filter id="椭圆_10" x="603.764" y="138.148" width="48.519" height="48.519" filterUnits="userSpaceOnUse">
      <feOffset dy="3" input="SourceAlpha"/>
      <feGaussianBlur stdDeviation="3" result="blur-25"/>
      <feFlood flood-opacity="0.161"/>
      <feComposite operator="in" in2="blur-25"/>
      <feComposite in="SourceGraphic"/>
    </filter>
    <filter id="椭圆_4" x="31.756" y="301.788" width="48" height="48" filterUnits="userSpaceOnUse">
      <feOffset dy="3" input="SourceAlpha"/>
      <feGaussianBlur stdDeviation="3" result="blur-26"/>
      <feFlood flood-opacity="0.161"/>
      <feComposite operator="in" in2="blur-26"/>
      <feComposite in="SourceGraphic"/>
    </filter>
    <filter id="椭圆_7" x="334.326" y="306.967" width="55.107" height="55.107" filterUnits="userSpaceOnUse">
      <feOffset dy="3" input="SourceAlpha"/>
      <feGaussianBlur stdDeviation="3" result="blur-27"/>
      <feFlood flood-opacity="0.161"/>
      <feComposite operator="in" in2="blur-27"/>
      <feComposite in="SourceGraphic"/>
    </filter>
    <filter id="椭圆_17" x="977.216" y="142.213" width="55.107" height="55.107" filterUnits="userSpaceOnUse">
      <feOffset dy="3" input="SourceAlpha"/>
      <feGaussianBlur stdDeviation="3" result="blur-28"/>
      <feFlood flood-opacity="0.161"/>
      <feComposite operator="in" in2="blur-28"/>
      <feComposite in="SourceGraphic"/>
    </filter>
    <filter id="椭圆_11" x="791.206" y="109.547" width="48.519" height="48.519" filterUnits="userSpaceOnUse">
      <feOffset dy="3" input="SourceAlpha"/>
      <feGaussianBlur stdDeviation="3" result="blur-29"/>
      <feFlood flood-opacity="0.161"/>
      <feComposite operator="in" in2="blur-29"/>
      <feComposite in="SourceGraphic"/>
    </filter>
    <filter id="椭圆_2" x="321.664" y="135.99" width="56.451" height="56.451" filterUnits="userSpaceOnUse">
      <feOffset dy="3" input="SourceAlpha"/>
      <feGaussianBlur stdDeviation="3" result="blur-30"/>
      <feFlood flood-opacity="0.161"/>
      <feComposite operator="in" in2="blur-30"/>
      <feComposite in="SourceGraphic"/>
    </filter>
    <filter id="椭圆_12" x="753.826" y="278.737" width="59.782" height="59.782" filterUnits="userSpaceOnUse">
      <feOffset dy="3" input="SourceAlpha"/>
      <feGaussianBlur stdDeviation="3" result="blur-31"/>
      <feFlood flood-opacity="0.161"/>
      <feComposite operator="in" in2="blur-31"/>
      <feComposite in="SourceGraphic"/>
    </filter>
    <filter id="椭圆_21" x="864.154" y="646.914" width="53.582" height="53.582" filterUnits="userSpaceOnUse">
      <feOffset dy="3" input="SourceAlpha"/>
      <feGaussianBlur stdDeviation="3" result="blur-32"/>
      <feFlood flood-opacity="0.161"/>
      <feComposite operator="in" in2="blur-32"/>
      <feComposite in="SourceGraphic"/>
    </filter>
    <filter id="椭圆_6" x="570.313" y="550.9" width="50.02" height="50.02" filterUnits="userSpaceOnUse">
      <feOffset dy="3" input="SourceAlpha"/>
      <feGaussianBlur stdDeviation="3" result="blur-33"/>
      <feFlood flood-opacity="0.161"/>
      <feComposite operator="in" in2="blur-33"/>
      <feComposite in="SourceGraphic"/>
    </filter>
    <filter id="椭圆_14" x="1218.908" y="386.223" width="50.02" height="50.02" filterUnits="userSpaceOnUse">
      <feOffset dy="3" input="SourceAlpha"/>
      <feGaussianBlur stdDeviation="3" result="blur-34"/>
      <feFlood flood-opacity="0.161"/>
      <feComposite operator="in" in2="blur-34"/>
      <feComposite in="SourceGraphic"/>
    </filter>
    <filter id="椭圆_9" x="346.644" y="579.245" width="50.02" height="50.02" filterUnits="userSpaceOnUse">
      <feOffset dy="3" input="SourceAlpha"/>
      <feGaussianBlur stdDeviation="3" result="blur-35"/>
      <feFlood flood-opacity="0.161"/>
      <feComposite operator="in" in2="blur-35"/>
      <feComposite in="SourceGraphic"/>
    </filter>
    <filter id="椭圆_16" x="989.41" y="414.568" width="50.02" height="50.02" filterUnits="userSpaceOnUse">
      <feOffset dy="3" input="SourceAlpha"/>
      <feGaussianBlur stdDeviation="3" result="blur-36"/>
      <feFlood flood-opacity="0.161"/>
      <feComposite operator="in" in2="blur-36"/>
      <feComposite in="SourceGraphic"/>
    </filter>
    <filter id="椭圆_3" x="0" y="612.962" width="56.451" height="56.451" filterUnits="userSpaceOnUse">
      <feOffset dy="3" input="SourceAlpha"/>
      <feGaussianBlur stdDeviation="3" result="blur-37"/>
      <feFlood flood-opacity="0.161"/>
      <feComposite operator="in" in2="blur-37"/>
      <feComposite in="SourceGraphic"/>
    </filter>
    <filter id="椭圆_5" x="200.231" y="667.884" width="56.758" height="56.758" filterUnits="userSpaceOnUse">
      <feOffset dy="3" input="SourceAlpha"/>
      <feGaussianBlur stdDeviation="3" result="blur-38"/>
      <feFlood flood-opacity="0.161"/>
      <feComposite operator="in" in2="blur-38"/>
      <feComposite in="SourceGraphic"/>
    </filter>
    <filter id="多边形_1" x="106" y="16" width="67.569" height="65.858" filterUnits="userSpaceOnUse">
      <feOffset dy="3" input="SourceAlpha"/>
      <feGaussianBlur stdDeviation="3" result="blur-39"/>
      <feFlood flood-opacity="0.161"/>
      <feComposite operator="in" in2="blur-39"/>
      <feComposite in="SourceGraphic"/>
    </filter>
    <filter id="多边形_7" x="616.78" y="313.234" width="59.711" height="63.246" filterUnits="userSpaceOnUse">
      <feOffset dy="3" input="SourceAlpha"/>
      <feGaussianBlur stdDeviation="3" result="blur-40"/>
      <feFlood flood-opacity="0.161"/>
      <feComposite operator="in" in2="blur-40"/>
      <feComposite in="SourceGraphic"/>
    </filter>
    <filter id="多边形_13" x="1262.917" y="148.354" width="59.711" height="63.246" filterUnits="userSpaceOnUse">
      <feOffset dy="3" input="SourceAlpha"/>
      <feGaussianBlur stdDeviation="3" result="blur-41"/>
      <feFlood flood-opacity="0.161"/>
      <feComposite operator="in" in2="blur-41"/>
      <feComposite in="SourceGraphic"/>
    </filter>
    <filter id="多边形_10" x="510.229" y="20.586" width="65.579" height="67.409" filterUnits="userSpaceOnUse">
      <feOffset dy="3" input="SourceAlpha"/>
      <feGaussianBlur stdDeviation="3" result="blur-42"/>
      <feFlood flood-opacity="0.161"/>
      <feComposite operator="in" in2="blur-42"/>
      <feComposite in="SourceGraphic"/>
    </filter>
    <filter id="多边形_3" x="101.898" y="399.654" width="65.858" height="67.569" filterUnits="userSpaceOnUse">
      <feOffset dy="3" input="SourceAlpha"/>
      <feGaussianBlur stdDeviation="3" result="blur-43"/>
      <feFlood flood-opacity="0.161"/>
      <feComposite operator="in" in2="blur-43"/>
      <feComposite in="SourceGraphic"/>
    </filter>
    <filter id="多边形_6" x="251.224" y="415.543" width="63.246" height="59.711" filterUnits="userSpaceOnUse">
      <feOffset dy="3" input="SourceAlpha"/>
      <feGaussianBlur stdDeviation="3" result="blur-44"/>
      <feFlood flood-opacity="0.161"/>
      <feComposite operator="in" in2="blur-44"/>
      <feComposite in="SourceGraphic"/>
    </filter>
    <filter id="多边形_11" x="886.345" y="20.199" width="67.409" height="65.579" filterUnits="userSpaceOnUse">
      <feOffset dy="3" input="SourceAlpha"/>
      <feGaussianBlur stdDeviation="3" result="blur-45"/>
      <feFlood flood-opacity="0.161"/>
      <feComposite operator="in" in2="blur-45"/>
      <feComposite in="SourceGraphic"/>
    </filter>
    <filter id="多边形_2" x="273.704" y="0" width="68.299" height="67.56" filterUnits="userSpaceOnUse">
      <feOffset dy="3" input="SourceAlpha"/>
      <feGaussianBlur stdDeviation="3" result="blur-46"/>
      <feFlood flood-opacity="0.161"/>
      <feComposite operator="in" in2="blur-46"/>
      <feComposite in="SourceGraphic"/>
    </filter>
    <filter id="多边形_8" x="672.732" y="465.96" width="68.056" height="66.828" filterUnits="userSpaceOnUse">
      <feOffset dy="3" input="SourceAlpha"/>
      <feGaussianBlur stdDeviation="3" result="blur-47"/>
      <feFlood flood-opacity="0.161"/>
      <feComposite operator="in" in2="blur-47"/>
      <feComposite in="SourceGraphic"/>
    </filter>
    <filter id="多边形_12" x="1315.944" y="301.022" width="68.056" height="66.828" filterUnits="userSpaceOnUse">
      <feOffset dy="3" input="SourceAlpha"/>
      <feGaussianBlur stdDeviation="3" result="blur-48"/>
      <feFlood flood-opacity="0.161"/>
      <feComposite operator="in" in2="blur-48"/>
      <feComposite in="SourceGraphic"/>
    </filter>
    <filter id="多边形_9" x="413.57" y="686.204" width="66.828" height="68.056" filterUnits="userSpaceOnUse">
      <feOffset dy="3" input="SourceAlpha"/>
      <feGaussianBlur stdDeviation="3" result="blur-49"/>
      <feFlood flood-opacity="0.161"/>
      <feComposite operator="in" in2="blur-49"/>
      <feComposite in="SourceGraphic"/>
    </filter>
    <filter id="多边形_4" x="116.196" y="564.72" width="67.56" height="68.299" filterUnits="userSpaceOnUse">
      <feOffset dy="3" input="SourceAlpha"/>
      <feGaussianBlur stdDeviation="3" result="blur-50"/>
      <feFlood flood-opacity="0.161"/>
      <feComposite operator="in" in2="blur-50"/>
      <feComposite in="SourceGraphic"/>
    </filter>
    <filter id="多边形_5" x="72.484" y="699.833" width="67.399" height="68.261" filterUnits="userSpaceOnUse">
      <feOffset dy="3" input="SourceAlpha"/>
      <feGaussianBlur stdDeviation="3" result="blur-51"/>
      <feFlood flood-opacity="0.161"/>
      <feComposite operator="in" in2="blur-51"/>
      <feComposite in="SourceGraphic"/>
    </filter>
    <filter id="矩形_21" x="860.58" y="493.639" width="59.782" height="59.782" filterUnits="userSpaceOnUse">
      <feOffset dy="3" input="SourceAlpha"/>
      <feGaussianBlur stdDeviation="3" result="blur-52"/>
      <feFlood flood-opacity="0.161"/>
      <feComposite operator="in" in2="blur-52"/>
      <feComposite in="SourceGraphic"/>
    </filter>
    <filter id="椭圆_13" x="761.997" y="443.027" width="59.782" height="59.782" filterUnits="userSpaceOnUse">
      <feOffset dy="3" input="SourceAlpha"/>
      <feGaussianBlur stdDeviation="3" result="blur-53"/>
      <feFlood flood-opacity="0.161"/>
      <feComposite operator="in" in2="blur-53"/>
      <feComposite in="SourceGraphic"/>
    </filter>
    <filter id="矩形_27" x="1228.923" y="624.63" width="56.133" height="56.133" filterUnits="userSpaceOnUse">
      <feOffset dy="3" input="SourceAlpha"/>
      <feGaussianBlur stdDeviation="3" result="blur-54"/>
      <feFlood flood-opacity="0.161"/>
      <feComposite operator="in" in2="blur-54"/>
      <feComposite in="SourceGraphic"/>
    </filter>
    <filter id="椭圆_18" x="1321.059" y="553.813" width="56.133" height="56.133" filterUnits="userSpaceOnUse">
      <feOffset dy="3" input="SourceAlpha"/>
      <feGaussianBlur stdDeviation="3" result="blur-55"/>
      <feFlood flood-opacity="0.161"/>
      <feComposite operator="in" in2="blur-55"/>
      <feComposite in="SourceGraphic"/>
    </filter>
    <filter id="椭圆_19" x="1135.473" y="672.672" width="56.133" height="56.133" filterUnits="userSpaceOnUse">
      <feOffset dy="3" input="SourceAlpha"/>
      <feGaussianBlur stdDeviation="3" result="blur-56"/>
      <feFlood flood-opacity="0.161"/>
      <feComposite operator="in" in2="blur-56"/>
      <feComposite in="SourceGraphic"/>
    </filter>
    <filter id="多边形_14" x="750.741" y="725.777" width="55.967" height="60.223" filterUnits="userSpaceOnUse">
      <feOffset dy="3" input="SourceAlpha"/>
      <feGaussianBlur stdDeviation="3" result="blur-57"/>
      <feFlood flood-opacity="0.161"/>
      <feComposite operator="in" in2="blur-57"/>
      <feComposite in="SourceGraphic"/>
    </filter>
    <filter id="多边形_15" x="1258.4" y="707.872" width="55.967" height="60.223" filterUnits="userSpaceOnUse">
      <feOffset dy="3" input="SourceAlpha"/>
      <feGaussianBlur stdDeviation="3" result="blur-58"/>
      <feFlood flood-opacity="0.161"/>
      <feComposite operator="in" in2="blur-58"/>
      <feComposite in="SourceGraphic"/>
    </filter>
  </defs>
  <g id="组_1" data-name="组 1" transform="translate(-35 -28)" opacity="0.272">
    <g transform="matrix(1, 0, 0, 1, 35, 28)" filter="url(#矩形_10)">
      <rect id="矩形_10-2" data-name="矩形 10" width="30" height="30" transform="translate(9 6)" fill="#e5e5ff"/>
    </g>
    <g transform="matrix(1, 0, 0, 1, 35, 28)" filter="url(#矩形_13)">
      <rect id="矩形_13-2" data-name="矩形 13" width="30" height="30" transform="translate(174.76 291.78) rotate(90)" fill="#e5e5ff"/>
    </g>
    <g transform="matrix(1, 0, 0, 1, 35, 28)" filter="url(#矩形_15)">
      <rect id="矩形_15-2" data-name="矩形 15" width="30" height="30" transform="translate(425.71 444.17) rotate(164)" fill="#e5e5ff"/>
    </g>
    <g transform="matrix(1, 0, 0, 1, 35, 28)" filter="url(#矩形_25)">
      <rect id="矩形_25-2" data-name="矩形 25" width="30" height="30" transform="translate(1068.6 279.41) rotate(164)" fill="#e5e5ff"/>
    </g>
    <g transform="matrix(1, 0, 0, 1, 35, 28)" filter="url(#矩形_31)">
      <rect id="矩形_31-2" data-name="矩形 31" width="30" height="30" transform="translate(1143.26 527.81) rotate(141)" fill="#e5e5ff"/>
    </g>
    <g transform="matrix(1, 0, 0, 1, 35, 28)" filter="url(#矩形_20)">
      <rect id="矩形_20-2" data-name="矩形 20" width="30" height="30" transform="translate(463.95 205.67) rotate(164)" fill="#e5e5ff"/>
    </g>
    <g transform="matrix(1, 0, 0, 1, 35, 28)" filter="url(#矩形_26)">
      <rect id="矩形_26-2" data-name="矩形 26" width="30" height="30" transform="translate(1106.84 40.53) rotate(164)" fill="#e5e5ff"/>
    </g>
    <g transform="matrix(1, 0, 0, 1, 35, 28)" filter="url(#矩形_19)">
      <rect id="矩形_19-2" data-name="矩形 19" width="30" height="30" transform="translate(698.11 232.35) rotate(164)" fill="#e5e5ff"/>
    </g>
    <g transform="matrix(1, 0, 0, 1, 35, 28)" filter="url(#矩形_34)">
      <rect id="矩形_34-2" data-name="矩形 34" width="30" height="30" transform="translate(784.06 631.67) rotate(141)" fill="#e5e5ff"/>
    </g>
    <g transform="matrix(1, 0, 0, 1, 35, 28)" filter="url(#矩形_24)">
      <rect id="矩形_24-2" data-name="矩形 24" width="30" height="30" transform="translate(1342.65 65.51) rotate(164)" fill="#e5e5ff"/>
    </g>
    <g transform="matrix(1, 0, 0, 1, 35, 28)" filter="url(#矩形_17)">
      <rect id="矩形_17-2" data-name="矩形 17" width="30" height="30" transform="translate(782.54 12.35) rotate(-1)" fill="#e5e5ff"/>
    </g>
    <g transform="matrix(1, 0, 0, 1, 35, 28)" filter="url(#矩形_11)">
      <rect id="矩形_11-2" data-name="矩形 11" width="30" height="30" transform="translate(212.22 140.02) rotate(-70)" fill="#e5e5ff"/>
    </g>
    <g transform="matrix(1, 0, 0, 1, 35, 28)" filter="url(#矩形_18)">
      <rect id="矩形_18-2" data-name="矩形 18" width="30" height="30" transform="matrix(-0.57, 0.82, -0.82, -0.57, 903.19, 352.56)" fill="#e5e5ff"/>
    </g>
    <g transform="matrix(1, 0, 0, 1, 35, 28)" filter="url(#矩形_29)">
      <rect id="矩形_29-2" data-name="矩形 29" width="30" height="30" transform="matrix(-0.21, 0.98, -0.98, -0.21, 1018.91, 666.1)" fill="#e5e5ff"/>
    </g>
    <g transform="matrix(1, 0, 0, 1, 35, 28)" filter="url(#矩形_14)">
      <rect id="矩形_14-2" data-name="矩形 14" width="30" height="30" transform="matrix(1, 0.07, -0.07, 1, 573.31, 445.02)" fill="#e5e5ff"/>
    </g>
    <g transform="matrix(1, 0, 0, 1, 35, 28)" filter="url(#矩形_22)">
      <rect id="矩形_22-2" data-name="矩形 22" width="30" height="30" transform="matrix(1, 0.07, -0.07, 1, 1222.29, 280.35)" fill="#e5e5ff"/>
    </g>
    <g transform="matrix(1, 0, 0, 1, 35, 28)" filter="url(#矩形_30)">
      <rect id="矩形_30-2" data-name="矩形 30" width="30" height="30" transform="translate(1282.02 469.76) rotate(-19)" fill="#e5e5ff"/>
    </g>
    <g transform="matrix(1, 0, 0, 1, 35, 28)" filter="url(#矩形_16)">
      <rect id="矩形_16-2" data-name="矩形 16" width="30" height="30" transform="matrix(-0.07, 1, -1, -0.07, 497.77, 579.11)" fill="#e5e5ff"/>
    </g>
    <g transform="matrix(1, 0, 0, 1, 35, 28)" filter="url(#矩形_23)">
      <rect id="矩形_23-2" data-name="矩形 23" width="30" height="30" transform="matrix(-0.07, 1, -1, -0.07, 1151.84, 414.43)" fill="#e5e5ff"/>
    </g>
    <g transform="matrix(1, 0, 0, 1, 35, 28)" filter="url(#矩形_12)">
      <rect id="矩形_12-2" data-name="矩形 12" width="30" height="30" transform="translate(40.74 509.09) rotate(20)" fill="#e5e5ff"/>
    </g>
    <g transform="matrix(1, 0, 0, 1, 35, 28)" filter="url(#椭圆_1)">
      <circle id="椭圆_1-2" data-name="椭圆 1" cx="15" cy="15" r="15" transform="translate(24 110)" fill="#404077"/>
    </g>
    <g transform="matrix(1, 0, 0, 1, 35, 28)" filter="url(#椭圆_8)">
      <circle id="椭圆_8-2" data-name="椭圆 8" cx="15" cy="15" r="15" transform="translate(547.86 243.14) rotate(74)" fill="#404077"/>
    </g>
    <g transform="matrix(1, 0, 0, 1, 35, 28)" filter="url(#椭圆_23)">
      <circle id="椭圆_23-2" data-name="椭圆 23" cx="15" cy="15" r="15" transform="translate(649.7 703.23) rotate(51)" fill="#404077"/>
    </g>
    <g transform="matrix(1, 0, 0, 1, 35, 28)" filter="url(#椭圆_15)">
      <circle id="椭圆_15-2" data-name="椭圆 15" cx="15" cy="15" r="15" transform="translate(1199.27 73.77) rotate(74)" fill="#404077"/>
    </g>
    <g transform="matrix(1, 0, 0, 1, 35, 28)" filter="url(#椭圆_10)">
      <circle id="椭圆_10-2" data-name="椭圆 10" cx="15" cy="15" r="15" transform="translate(613.29 174.67) rotate(-91)" fill="#404077"/>
    </g>
    <g transform="matrix(1, 0, 0, 1, 35, 28)" filter="url(#椭圆_4)">
      <circle id="椭圆_4-2" data-name="椭圆 4" cx="15" cy="15" r="15" transform="translate(70.76 307.79) rotate(90)" fill="#404077"/>
    </g>
    <g transform="matrix(1, 0, 0, 1, 35, 28)" filter="url(#椭圆_7)">
      <circle id="椭圆_7-2" data-name="椭圆 7" cx="15" cy="15" r="15" transform="translate(380.43 341.81) rotate(164)" fill="#404077"/>
    </g>
    <g transform="matrix(1, 0, 0, 1, 35, 28)" filter="url(#椭圆_17)">
      <circle id="椭圆_17-2" data-name="椭圆 17" cx="15" cy="15" r="15" transform="translate(1023.32 177.05) rotate(164)" fill="#404077"/>
    </g>
    <g transform="matrix(1, 0, 0, 1, 35, 28)" filter="url(#椭圆_11)">
      <circle id="椭圆_11-2" data-name="椭圆 11" cx="15" cy="15" r="15" transform="translate(800.21 116.07) rotate(-1)" fill="#404077"/>
    </g>
    <g transform="matrix(1, 0, 0, 1, 35, 28)" filter="url(#椭圆_2)">
      <circle id="椭圆_2-2" data-name="椭圆 2" cx="15" cy="15" r="15" transform="translate(330.66 170.18) rotate(-70)" fill="#404077"/>
    </g>
    <g transform="matrix(1, 0, 0, 1, 35, 28)" filter="url(#椭圆_12)">
      <circle id="椭圆_12-2" data-name="椭圆 12" cx="15" cy="15" r="15" transform="matrix(-0.57, 0.82, -0.82, -0.57, 804.61, 301.94)" fill="#404077"/>
    </g>
    <g transform="matrix(1, 0, 0, 1, 35, 28)" filter="url(#椭圆_21)">
      <circle id="椭圆_21-2" data-name="椭圆 21" cx="15" cy="15" r="15" transform="matrix(-0.21, 0.98, -0.98, -0.21, 908.74, 659.15)" fill="#404077"/>
    </g>
    <g transform="matrix(1, 0, 0, 1, 35, 28)" filter="url(#椭圆_6)">
      <circle id="椭圆_6-2" data-name="椭圆 6" cx="15" cy="15" r="15" transform="matrix(1, 0.07, -0.07, 1, 581.41, 556.9)" fill="#404077"/>
    </g>
    <g transform="matrix(1, 0, 0, 1, 35, 28)" filter="url(#椭圆_14)">
      <circle id="椭圆_14-2" data-name="椭圆 14" cx="15" cy="15" r="15" transform="matrix(1, 0.07, -0.07, 1, 1230, 392.22)" fill="#404077"/>
    </g>
    <g transform="matrix(1, 0, 0, 1, 35, 28)" filter="url(#椭圆_9)">
      <circle id="椭圆_9-2" data-name="椭圆 9" cx="15" cy="15" r="15" transform="matrix(-0.07, 1, -1, -0.07, 387.66, 587.34)" fill="#404077"/>
    </g>
    <g transform="matrix(1, 0, 0, 1, 35, 28)" filter="url(#椭圆_16)">
      <circle id="椭圆_16-2" data-name="椭圆 16" cx="15" cy="15" r="15" transform="matrix(-0.07, 1, -1, -0.07, 1030.43, 422.66)" fill="#404077"/>
    </g>
    <g transform="matrix(1, 0, 0, 1, 35, 28)" filter="url(#椭圆_3)">
      <circle id="椭圆_3-2" data-name="椭圆 3" cx="15" cy="15" r="15" transform="translate(19.26 618.96) rotate(20)" fill="#404077"/>
    </g>
    <g transform="matrix(1, 0, 0, 1, 35, 28)" filter="url(#椭圆_5)">
      <circle id="椭圆_5-2" data-name="椭圆 5" cx="15" cy="15" r="15" transform="translate(237.24 712.64) rotate(-159)" fill="#404077"/>
    </g>
    <g transform="matrix(1, 0, 0, 1, 35, 28)" filter="url(#多边形_1)">
      <path id="多边形_1-2" data-name="多边形 1" d="M19,0,38,33H0Z" transform="translate(132 22) rotate(31)" fill="#e5e5ff"/>
    </g>
    <g transform="matrix(1, 0, 0, 1, 35, 28)" filter="url(#多边形_7)">
      <path id="多边形_7-2" data-name="多边形 7" d="M19,0,38,33H0Z" transform="matrix(-0.26, 0.97, -0.97, -0.26, 667.49, 327.78)" fill="#e5e5ff"/>
    </g>
    <g transform="matrix(1, 0, 0, 1, 35, 28)" filter="url(#多边形_13)">
      <path id="多边形_13-2" data-name="多边形 13" d="M19,0,38,33H0Z" transform="matrix(-0.26, 0.97, -0.97, -0.26, 1313.63, 162.89)" fill="#e5e5ff"/>
    </g>
    <g transform="matrix(1, 0, 0, 1, 35, 28)" filter="url(#多边形_10)">
      <path id="多边形_10-2" data-name="多边形 10" d="M19,0,38,33H0Z" transform="translate(519.23 59.49) rotate(-60)" fill="#e5e5ff"/>
    </g>
    <g transform="matrix(1, 0, 0, 1, 35, 28)" filter="url(#多边形_3)">
      <path id="多边形_3-2" data-name="多边形 3" d="M19,0,38,33H0Z" transform="translate(158.76 422.65) rotate(121)" fill="#e5e5ff"/>
    </g>
    <g transform="matrix(1, 0, 0, 1, 35, 28)" filter="url(#多边形_6)">
      <path id="多边形_6-2" data-name="多边形 6" d="M19,0,38,33H0Z" transform="matrix(-0.97, -0.26, 0.26, -0.97, 296.93, 463.25)" fill="#e5e5ff"/>
    </g>
    <g transform="matrix(1, 0, 0, 1, 35, 28)" filter="url(#多边形_11)">
      <path id="多边形_11-2" data-name="多边形 11" d="M19,0,38,33H0Z" transform="translate(911.85 26.2) rotate(30)" fill="#e5e5ff"/>
    </g>
    <g transform="matrix(1, 0, 0, 1, 35, 28)" filter="url(#多边形_2)">
      <path id="多边形_2-2" data-name="多边形 2" d="M19,0,38,33H0Z" transform="translate(282.7 29.91) rotate(-39)" fill="#e5e5ff"/>
    </g>
    <g transform="matrix(1, 0, 0, 1, 35, 28)" filter="url(#多边形_8)">
      <path id="多边形_8-2" data-name="多边形 8" d="M19,0,38,33H0Z" transform="matrix(0.82, 0.57, -0.57, 0.82, 700.66, 471.96)" fill="#e5e5ff"/>
    </g>
    <g transform="matrix(1, 0, 0, 1, 35, 28)" filter="url(#多边形_12)">
      <path id="多边形_12-2" data-name="多边形 12" d="M19,0,38,33H0Z" transform="matrix(0.82, 0.57, -0.57, 0.82, 1343.87, 307.02)" fill="#e5e5ff"/>
    </g>
    <g transform="matrix(1, 0, 0, 1, 35, 28)" filter="url(#多边形_9)">
      <path id="多边形_9-2" data-name="多边形 9" d="M19,0,38,33H0Z" transform="matrix(-0.57, 0.82, -0.82, -0.57, 471.4, 711.13)" fill="#e5e5ff"/>
    </g>
    <g transform="matrix(1, 0, 0, 1, 35, 28)" filter="url(#多边形_4)">
      <path id="多边形_4-2" data-name="多边形 4" d="M19,0,38,33H0Z" transform="translate(150.84 570.72) rotate(51)" fill="#e5e5ff"/>
    </g>
    <g transform="matrix(1, 0, 0, 1, 35, 28)" filter="url(#多边形_5)">
      <path id="多边形_5-2" data-name="多边形 5" d="M19,0,38,33H0Z" transform="matrix(-0.62, -0.79, 0.79, -0.62, 104.88, 756.09)" fill="#e5e5ff"/>
    </g>
    <g transform="matrix(1, 0, 0, 1, 35, 28)" filter="url(#矩形_21)">
      <rect id="矩形_21-2" data-name="矩形 21" width="30" height="30" transform="matrix(-0.57, 0.82, -0.82, -0.57, 911.36, 516.85)" fill="#e5e5ff"/>
    </g>
    <g transform="matrix(1, 0, 0, 1, 35, 28)" filter="url(#椭圆_13)">
      <circle id="椭圆_13-2" data-name="椭圆 13" cx="15" cy="15" r="15" transform="matrix(-0.57, 0.82, -0.82, -0.57, 812.78, 466.23)" fill="#404077"/>
    </g>
    <g transform="matrix(1, 0, 0, 1, 35, 28)" filter="url(#矩形_27)">
      <rect id="矩形_27-2" data-name="矩形 27" width="30" height="30" transform="translate(1266.29 630.63) rotate(71)" fill="#e5e5ff"/>
    </g>
    <g transform="matrix(1, 0, 0, 1, 35, 28)" filter="url(#椭圆_18)">
      <circle id="椭圆_18-2" data-name="椭圆 18" cx="15" cy="15" r="15" transform="translate(1330.06 569.58) rotate(-19)" fill="#404077"/>
    </g>
    <g transform="matrix(1, 0, 0, 1, 35, 28)" filter="url(#椭圆_19)">
      <circle id="椭圆_19-2" data-name="椭圆 19" cx="15" cy="15" r="15" transform="translate(1172.84 678.67) rotate(71)" fill="#404077"/>
    </g>
    <g transform="matrix(1, 0, 0, 1, 35, 28)" filter="url(#多边形_14)">
      <path id="多边形_14-2" data-name="多边形 14" d="M19,0,38,33H0Z" transform="translate(792.42 731.78) rotate(82)" fill="#e5e5ff"/>
    </g>
    <g transform="matrix(1, 0, 0, 1, 35, 28)" filter="url(#多边形_15)">
      <path id="多边形_15-2" data-name="多边形 15" d="M19,0,38,33H0Z" transform="translate(1300.08 713.87) rotate(82)" fill="#e5e5ff"/>
    </g>
  </g>
</svg>
