<svg xmlns="http://www.w3.org/2000/svg" width="41.5" height="55.333" viewBox="0 0 41.5 55.333">
  <path id="Icon_awesome-file-pdf" data-name="Icon awesome-file-pdf" d="M19.658,27.677c-.54-1.729-.53-5.069-.216-5.069C20.35,22.609,20.264,26.6,19.658,27.677Zm-.184,5.1a49.868,49.868,0,0,1-3.069,6.776,39.8,39.8,0,0,1,6.8-2.367A14,14,0,0,1,19.475,32.779ZM9.305,46.266c0,.086,1.427-.584,3.772-4.345C12.353,42.6,9.932,44.569,9.305,46.266ZM26.8,17.292H41.5V52.74a2.588,2.588,0,0,1-2.594,2.594H2.594A2.588,2.588,0,0,1,0,52.74V2.594A2.588,2.588,0,0,1,2.594,0H24.208V14.7A2.6,2.6,0,0,0,26.8,17.292Zm-.865,18.567a10.847,10.847,0,0,1-4.615-5.814c.486-2,1.254-5.036.67-6.938-.508-3.177-4.582-2.864-5.166-.735-.54,1.978-.043,4.766.875,8.322a101.484,101.484,0,0,1-4.409,9.273c-.011,0-.011.011-.022.011-2.929,1.5-7.954,4.809-5.89,7.349A3.358,3.358,0,0,0,9.7,48.406c1.935,0,3.858-1.945,6.6-6.679a61.6,61.6,0,0,1,8.538-2.507,16.378,16.378,0,0,0,6.917,2.107c3.156,0,3.372-3.458,2.129-4.69-1.5-1.47-5.868-1.048-7.954-.778ZM40.743,11.348,30.152.757A2.592,2.592,0,0,0,28.315,0h-.648V13.833H41.5v-.659A2.585,2.585,0,0,0,40.743,11.348ZM32.735,38.939c.443-.292-.27-1.286-4.626-.973C32.119,39.674,32.735,38.939,32.735,38.939Z" fill="#e5e5ff"/>
</svg>
