<svg xmlns="http://www.w3.org/2000/svg" width="244" height="387.2" viewBox="0 0 244 387.2">
  <g id="phone" transform="translate(-71.6)">
    <g id="组_16" data-name="组 16">
      <path id="路径_9" data-name="路径 9" d="M304.8,10.84V10.8A36.639,36.639,0,0,0,278.84,0H108.32A36.84,36.84,0,0,0,71.6,36.72V350.44a36.874,36.874,0,0,0,36.72,36.76H278.88a36.875,36.875,0,0,0,36.72-36.72V36.76A36.642,36.642,0,0,0,304.8,10.84ZM193.6,362.28h0a9.92,9.92,0,1,1,9.92-9.92A9.92,9.92,0,0,1,193.6,362.28ZM286.44,300a24,24,0,0,1-24,24H124.72a24,24,0,0,1-24-24V66.2a24,24,0,0,1,24-24H262.48a24,24,0,0,1,24,24Z" fill="#e5e5ff"/>
    </g>
  </g>
</svg>
