<svg xmlns="http://www.w3.org/2000/svg" width="55" height="54.785" viewBox="0 0 55 54.785">
  <g id="web" transform="translate(0 -1)">
    <path id="路径_3" data-name="路径 3" d="M55,13.891V5.834A4.839,4.839,0,0,0,50.166,1H4.834A4.839,4.839,0,0,0,0,5.834v8.057ZM37.168,7.445h9.668a1.611,1.611,0,0,1,0,3.223H37.168a1.611,1.611,0,0,1,0-3.223Zm-16.113,0a1.611,1.611,0,1,1-1.611,1.611A1.611,1.611,0,0,1,21.055,7.445Zm-6.445,0A1.611,1.611,0,1,1,13,9.057,1.611,1.611,0,0,1,14.609,7.445Zm-6.445,0A1.611,1.611,0,1,1,6.553,9.057,1.611,1.611,0,0,1,8.164,7.445Z" fill="#8888c4"/>
    <path id="路径_4" data-name="路径 4" d="M0,151v33.838a4.839,4.839,0,0,0,4.834,4.834H50.166A4.839,4.839,0,0,0,55,184.838V151Zm18.839,22.912a1.611,1.611,0,1,1-2.013,2.516l-8.057-6.445a1.612,1.612,0,0,1,0-2.516l8.057-6.445a1.611,1.611,0,1,1,2.013,2.516l-6.484,5.187ZM33.815,158.08l-9.668,22.559a1.611,1.611,0,0,1-2.962-1.27l9.668-22.559a1.611,1.611,0,0,1,2.962,1.27Zm12.416,11.9-8.057,6.445a1.611,1.611,0,1,1-2.013-2.516l6.484-5.187-6.484-5.187a1.611,1.611,0,1,1,2.013-2.516l8.057,6.445a1.612,1.612,0,0,1,0,2.516Z" transform="translate(0 -133.887)" fill="#8888c4"/>
  </g>
</svg>
