<svg xmlns="http://www.w3.org/2000/svg" width="384" height="480" viewBox="0 0 384 480">
  <g id="download" transform="translate(-48)">
    <g id="组_9" data-name="组 9">
      <g id="组_8" data-name="组 8">
        <path id="路径_5" data-name="路径 5" d="M378.528,214.688l-21.088-24a16.025,16.025,0,0,0-22.56-1.472L272,244.32V16A16.006,16.006,0,0,0,256,0H224a16.006,16.006,0,0,0-16,16V244.32l-62.88-55.1a16.028,16.028,0,0,0-22.56,1.472l-21.088,23.968a16.015,16.015,0,0,0,1.472,22.624L229.472,348.032a16.017,16.017,0,0,0,21.088,0l126.5-110.752A15.978,15.978,0,0,0,378.528,214.688Z" fill="#e5e5ff"/>
      </g>
    </g>
    <g id="组_11" data-name="组 11">
      <g id="组_10" data-name="组 10">
        <path id="路径_6" data-name="路径 6" d="M416,416H64a16.006,16.006,0,0,0-16,16v32a16.006,16.006,0,0,0,16,16H416a16.006,16.006,0,0,0,16-16V432A16.006,16.006,0,0,0,416,416Z" fill="#e5e5ff"/>
      </g>
    </g>
  </g>
</svg>
