<svg xmlns="http://www.w3.org/2000/svg" width="512" height="360" viewBox="0 0 512 360">
  <g id="mail" transform="translate(0 -76)">
    <g id="组_9" data-name="组 9">
      <g id="组_8" data-name="组 8">
        <path id="路径_5" data-name="路径 5" d="M507.49,101.721,352.211,256,507.49,410.279A44.48,44.48,0,0,0,512,391V121A44.477,44.477,0,0,0,507.49,101.721Z" fill="#e5e5ff"/>
      </g>
    </g>
    <g id="组_11" data-name="组 11">
      <g id="组_10" data-name="组 10">
        <path id="路径_6" data-name="路径 6" d="M467,76H45a44.477,44.477,0,0,0-19.279,4.51L224.184,277.973a45.037,45.037,0,0,0,63.632,0L486.279,80.51A44.477,44.477,0,0,0,467,76Z" fill="#e5e5ff"/>
      </g>
    </g>
    <g id="组_13" data-name="组 13">
      <g id="组_12" data-name="组 12">
        <path id="路径_7" data-name="路径 7" d="M4.51,101.721A44.477,44.477,0,0,0,0,121V391a44.474,44.474,0,0,0,4.51,19.279L159.789,256Z" fill="#e5e5ff"/>
      </g>
    </g>
    <g id="组_15" data-name="组 15">
      <g id="组_14" data-name="组 14">
        <path id="路径_8" data-name="路径 8" d="M331,277.211l-21.973,21.973a75.078,75.078,0,0,1-106.055,0L181,277.211,25.721,431.49A44.477,44.477,0,0,0,45,436H467a44.477,44.477,0,0,0,19.279-4.51Z" fill="#e5e5ff"/>
      </g>
    </g>
  </g>
</svg>
