<svg xmlns="http://www.w3.org/2000/svg" width="510.001" height="510" viewBox="0 0 510.001 510">
  <g id="witness" transform="translate(0.001)">
    <path id="路径_7" data-name="路径 7" d="M506.6,245.486C460.244,189.012,362.107,123.107,255,123.107c-107.491,0-205.632,66.353-251.6,122.379a15,15,0,0,0,0,19.028c47.452,57.84,145.819,122.38,251.6,122.38,109.537,0,207.256-68.357,251.6-122.379A15,15,0,0,0,506.6,245.486ZM356.893,255A101.894,101.894,0,1,1,255,153.106,102.009,102.009,0,0,1,356.893,255ZM35.262,255C52.145,237.457,92.853,199.588,150,175.283a131.554,131.554,0,0,0-.017,159.412C106.532,316.28,66.17,287.186,35.262,255ZM360,334.717a131.556,131.556,0,0,0,.017-159.412c43.447,18.415,83.81,47.51,114.719,79.69C457.855,272.544,417.147,310.411,360,334.717Z" fill="#e5e5ff"/>
    <path id="路径_8" data-name="路径 8" d="M204,255a51,51,0,1,0,51-51A51.057,51.057,0,0,0,204,255Zm72,0a21,21,0,1,1-21-21A21.024,21.024,0,0,1,276,255Z" fill="#e5e5ff"/>
    <path id="路径_9" data-name="路径 9" d="M255,65a15,15,0,0,0,15-15V15a15,15,0,0,0-30,0V50A15,15,0,0,0,255,65Z" fill="#e5e5ff"/>
    <path id="路径_10" data-name="路径 10" d="M344.5,85.062a15,15,0,0,0,20.461-5.6l19.962-35A15,15,0,1,0,358.864,29.6L338.9,64.6A15,15,0,0,0,344.5,85.062Z" fill="#e5e5ff"/>
    <path id="路径_11" data-name="路径 11" d="M145.039,79.463A15,15,0,0,0,171.1,64.6l-19.962-35a15,15,0,1,0-26.059,14.863Z" fill="#e5e5ff"/>
    <path id="路径_12" data-name="路径 12" d="M255,445a15,15,0,0,0-15,15v35a15,15,0,0,0,30,0V460A15,15,0,0,0,255,445Z" fill="#e5e5ff"/>
    <path id="路径_13" data-name="路径 13" d="M165.5,424.939a15,15,0,0,0-20.461,5.6l-19.962,35A15,15,0,0,0,151.136,480.4l19.962-35A15,15,0,0,0,165.5,424.939Z" fill="#e5e5ff"/>
    <path id="路径_14" data-name="路径 14" d="M364.961,430.537A15,15,0,1,0,338.9,445.4l19.962,35a15,15,0,1,0,26.059-14.862Z" fill="#e5e5ff"/>
  </g>
</svg>
